<svg width="165" height="236" viewBox="0 0 165 236" fill="none" xmlns="http://www.w3.org/2000/svg">
<path d="M0 35.7221C0 25.6072 7.55196 17.0846 17.5934 15.8675L142.593 0.715958C154.506 -0.728022 165 8.5706 165 20.5706V200.278C165 210.393 157.448 218.915 147.407 220.133L22.4067 235.284C10.4938 236.728 0 227.429 0 215.429V35.7221Z" fill="url(#paint0_linear_1_74)"/>
<path d="M17.7137 16.8602L142.714 1.70869C154.031 0.33691 164 9.1706 164 20.5706V200.278C164 209.887 156.826 217.984 147.286 219.14L22.2863 234.291C10.9691 235.663 1 226.829 1 215.429V35.7221C1 26.113 8.17436 18.0165 17.7137 16.8602Z" stroke="url(#paint1_linear_1_74)" stroke-opacity="0.2" stroke-width="2"/>
<defs>
<linearGradient id="paint0_linear_1_74" x1="59.5" y1="61.7344" x2="95.7165" y2="202.72" gradientUnits="userSpaceOnUse">
<stop stop-color="#353F54"/>
<stop offset="1" stop-color="#222834"/>
</linearGradient>
<linearGradient id="paint1_linear_1_74" x1="18.5" y1="6.96266" x2="148.663" y2="94.6003" gradientUnits="userSpaceOnUse">
<stop stop-color="white"/>
<stop offset="0.844522"/>
<stop offset="1"/>
</linearGradient>
</defs>
</svg>
