<svg width="54" height="54" viewBox="0 0 54 54" fill="none" xmlns="http://www.w3.org/2000/svg">
<path d="M27.1055 0C12.2755 0 0 12.0646 0 26.8945C0 41.7245 12.2755 54 27.1055 54C41.9354 54 54 41.7245 54 26.8945C54 12.0646 41.9354 0 27.1055 0ZM23.9414 9.49219C23.9414 7.74773 25.361 6.32812 27.1055 6.32812C28.8489 6.32812 30.2695 7.74773 30.2695 9.49219V28.4766C30.2695 30.221 28.8489 31.6406 27.1055 31.6406C25.361 31.6406 23.9414 30.221 23.9414 28.4766V9.49219ZM40.5306 40.3186C36.9415 43.9045 32.1743 46.0898 27.1055 46.0898C22.0356 46.0898 17.0575 43.9045 13.4705 40.3207C9.88453 36.7316 7.91016 31.9634 7.91016 26.8945C7.91016 21.8257 9.88453 17.0575 13.4684 13.4705C14.0653 12.8746 14.8595 12.5466 15.7054 12.5466C16.5523 12.5466 17.3475 12.8746 17.9445 13.4694C19.1774 14.7023 19.1784 16.7105 17.9455 17.9466C15.5556 20.3344 14.2383 23.5132 14.2383 26.8945C14.2383 30.2748 15.5545 33.4526 17.9455 35.8446C20.2289 38.127 23.702 39.4348 27.1055 39.4348C30.5089 39.4348 33.7711 38.127 36.0545 35.8425C38.4455 33.4526 39.7617 30.2748 39.7617 26.8945C39.7617 23.5143 38.4455 20.3365 36.0534 17.9445C34.8205 16.7105 34.8205 14.7023 36.0545 13.4694C36.6514 12.8746 37.4456 12.5466 38.2936 12.5466C39.1405 12.5466 39.9347 12.8746 40.5306 13.4705C44.1155 17.0575 46.0898 21.8257 46.0898 26.8945C46.0898 31.9634 44.1155 36.7316 40.5306 40.3186Z" fill="#FDA43C"/>
</svg>
